<svg xmlns="http://www.w3.org/2000/svg" width="192.475" height="116.622" viewBox="0 0 192.475 116.622">
  <g id="Group_1458" data-name="Group 1458" transform="translate(-928 -603.371)">
    <g id="Group_1453" data-name="Group 1453" transform="translate(930 605.371)">
      <g id="Union_3" data-name="Union 3" transform="translate(139.28 11.052)" fill="#928f9b">
        <path d="M 43.83850860595703 102.5705261230469 L 38.48186874389648 102.5705261230469 C 36.74021530151367 102.5705261230469 35.11625671386719 101.7300109863281 33.90913772583008 100.2038116455078 C 32.75679016113281 98.74686431884766 32.12216186523438 96.82621002197266 32.12216186523438 94.79567718505859 L 32.12216186523438 92.41439819335938 L 2.808024191836012e-06 92.41439819335938 L -0.9999971985816956 92.41439819335938 L -0.9999971985816956 91.41439819335938 L -0.9999971985816956 37.24170303344727 L -0.9999971985816956 36.24170303344727 L 2.808024191836012e-06 36.24170303344727 L 37.41241073608398 36.24170303344727 L 35.72649002075195 11.15612983703613 L 2.808024191836012e-06 11.15612983703613 L -0.9999971985816956 11.15612983703613 L -0.9999971985816956 10.15612983703613 L -0.9999971985816956 -3.605143319873605e-06 L -0.9999971985816956 -1.000003576278687 L 2.808024191836012e-06 -1.000003576278687 L 38.48186874389648 -1.000003576278687 C 42.42390823364258 -1.000003576278687 45.74833679199219 1.949369668960571 46.95122909545898 6.513876438140869 L 46.97314834594727 6.597076416015625 L 46.98054885864258 6.682809829711914 L 50.19145584106445 43.92451477050781 L 50.19514846801758 43.96738433837891 L 50.19514846801758 44.01041030883789 L 50.19514846801758 94.79567718505859 C 50.19514846801758 96.82594299316406 49.56069564819336 98.74654388427734 48.40868377685547 100.2036666870117 C 47.20196151733398 101.7299575805664 45.57891082763672 102.5705261230469 43.83850860595703 102.5705261230469 Z M 30.44537544250488 51.78526306152344 C 26.43041610717773 51.78526306152344 23.40273666381836 55.72089004516602 23.40273666381836 60.93986129760742 C 23.40273666381836 66.15971374511719 26.43041610717773 70.09599304199219 30.44537544250488 70.09599304199219 C 34.45682907104492 70.09599304199219 37.48186874389648 66.15971374511719 37.48186874389648 60.93986129760742 C 37.48186874389648 55.72089004516602 34.45682907104492 51.78526306152344 30.44537544250488 51.78526306152344 Z" stroke="none"/>
        <path d="M 43.83852005004883 101.5705337524414 C 46.79157638549805 101.5705337524414 49.19514846801758 98.52997589111328 49.19514846801758 94.79567718505859 L 49.19514846801758 44.01042175292969 L 45.98423385620117 6.76870584487915 C 44.900634765625 2.656834602355957 41.9567756652832 5.918666374782333e-06 38.48187637329102 5.918666374782333e-06 L 4.712785994342994e-06 5.918666374782333e-06 L 4.712785994342994e-06 10.15613460540771 L 36.66153335571289 10.15613460540771 L 38.48187637329102 37.24170684814453 L 4.712785994342994e-06 37.24170684814453 L 4.712785994342994e-06 91.41439056396484 L 33.12216186523438 91.41439056396484 L 33.12216186523438 94.79567718505859 C 33.12216186523438 98.52997589111328 35.52574920654297 101.5705337524414 38.48187637329102 101.5705337524414 L 43.83852005004883 101.5705337524414 M 30.44537544250488 50.78526306152344 C 35.02537536621094 50.78526306152344 38.48187637329102 55.15192031860352 38.48187637329102 60.93986129760742 C 38.48187637329102 66.73086547851562 35.02537536621094 71.09599304199219 30.44537544250488 71.09599304199219 C 25.85923385620117 71.09599304199219 22.40273284912109 66.73086547851562 22.40273284912109 60.93986129760742 C 22.40273284912109 55.15192031860352 25.85923385620117 50.78526306152344 30.44537544250488 50.78526306152344 M 43.83852005004883 103.5705337524414 L 38.48187637329102 103.5705337524414 C 36.45784759521484 103.5705337524414 34.50527572631836 102.5695190429688 33.12482070922852 100.8241653442383 C 31.8333911895752 99.19136047363281 31.12216186523438 97.05040740966797 31.12216186523438 94.79567718505859 L 31.12216186523438 93.41439056396484 L -1.999995231628418 93.41439056396484 L -1.999995231628418 35.24170684814453 L 36.34294891357422 35.24170684814453 L 34.79143524169922 12.15613460540771 L -1.999995231628418 12.15613460540771 L -1.999995231628418 -1.999994039535522 L 38.48187637329102 -1.999994039535522 C 40.68977737426758 -1.999994039535522 42.76029205322266 -1.184779763221741 44.4696044921875 0.3575059175491333 C 46.09466171264648 1.82379162311554 47.28717803955078 3.864506006240845 47.91820526123047 6.259048938751221 L 47.96206283569336 6.425448894500732 L 51.19514846801758 43.92436218261719 L 51.19514846801758 94.79567718505859 C 51.19514846801758 97.05006408691406 50.48414611816406 99.19091796875 49.19311904907227 100.823860168457 C 47.81306076049805 102.5694046020508 45.86138916015625 103.5705337524414 43.83852005004883 103.5705337524414 Z M 30.44537544250488 52.78526306152344 C 27.0005054473877 52.78526306152344 24.40273284912109 56.29097747802734 24.40273284912109 60.93986129760742 C 24.40273284912109 65.58962249755859 27.0005054473877 69.09599304199219 30.44537544250488 69.09599304199219 C 33.88674926757812 69.09599304199219 36.48187637329102 65.58962249755859 36.48187637329102 60.93986129760742 C 36.48187637329102 56.29097747802734 33.88674926757812 52.78526306152344 30.44537544250488 52.78526306152344 Z" stroke="none" fill="#f2f2f2"/>
      </g>
      <g id="Union_4" data-name="Union 4" transform="translate(49.196 112.62) rotate(180)" fill="#928f9b">
        <path d="M 38.48323059082031 102.5698165893555 L 3.333129825477954e-06 102.5698165893555 L -0.9999966621398926 102.5698165893555 L -0.9999966621398926 101.5698165893555 L -0.9999966621398926 91.41413116455078 L -0.9999966621398926 90.41413116455078 L 3.333129825477954e-06 90.41413116455078 L 35.72818374633789 90.41413116455078 L 37.41378784179688 65.32797241210938 L 3.333129825477954e-06 65.32797241210938 L -0.9999966621398926 65.32797241210938 L -0.9999966621398926 64.32797241210938 L -0.9999966621398926 10.15460205078125 L -0.9999966621398926 9.15460205078125 L 3.333129825477954e-06 9.15460205078125 L 32.12472152709961 9.15460205078125 L 32.12472152709961 6.77477502822876 C 32.12472152709961 4.744001865386963 32.75918960571289 2.823308229446411 33.9112548828125 1.36648166179657 C 35.11805725097656 -0.1595583707094193 36.74174880981445 -0.9999983906745911 38.48323059082031 -0.9999983906745911 L 43.83957672119141 -0.9999983906745911 C 45.58017730712891 -0.9999983906745911 47.20321655273438 -0.1595317125320435 48.40975189208984 1.366588354110718 C 49.56157684326172 2.823534965515137 50.1959228515625 4.74418830871582 50.1959228515625 6.77477502822876 L 50.1959228515625 57.55969619750977 L 50.1959228515625 57.60272216796875 L 50.19223022460938 57.64557647705078 L 46.98188400268555 94.88740539550781 L 46.97448348999023 94.97315979003906 L 46.95254898071289 95.05640411376953 C 45.74946975708008 99.62062835693359 42.42507171630859 102.5698165893555 38.48323059082031 102.5698165893555 Z M 30.44547080993652 31.47354888916016 C 26.43083000183105 31.47354888916016 23.40339088439941 35.40964126586914 23.40339088439941 40.62922668457031 C 23.40339088439941 45.84881591796875 26.43083000183105 49.78490829467773 30.44547080993652 49.78490829467773 C 34.45765686035156 49.78490829467773 37.48323059082031 45.84881591796875 37.48323059082031 40.62922668457031 C 37.48323059082031 35.40964126586914 34.45765686035156 31.47354888916016 30.44547080993652 31.47354888916016 Z" stroke="none"/>
        <path d="M 38.48323440551758 -7.62939453125e-06 C 35.52763366699219 -7.62939453125e-06 33.12471771240234 3.039794921875 33.12471771240234 6.774765014648438 L 33.12471771240234 10.15460968017578 L 7.62939453125e-06 10.15460968017578 L 7.62939453125e-06 64.32798004150391 L 38.48323440551758 64.32798004150391 L 36.66323471069336 91.41413879394531 L 7.62939453125e-06 91.41413879394531 L 7.62939453125e-06 101.5698089599609 L 38.48323440551758 101.5698089599609 C 41.95697784423828 101.5698089599609 44.90177917480469 98.91323852539062 45.98557662963867 94.80152130126953 L 49.19591903686523 57.5596923828125 L 49.19591903686523 6.774765014648438 C 49.19591903686523 3.039794921875 46.79302215576172 -7.62939453125e-06 43.83957672119141 -7.62939453125e-06 L 38.48323440551758 -7.62939453125e-06 M 30.44546318054199 50.78490829467773 C 25.86202049255371 50.78490829467773 22.40339279174805 46.41843795776367 22.40339279174805 40.62922286987305 C 22.40339279174805 34.83892059326172 25.86202049255371 30.47353363037109 30.44546318054199 30.47353363037109 C 35.02674865722656 30.47353363037109 38.48323440551758 34.83892059326172 38.48323440551758 40.62922286987305 C 38.48323440551758 46.41843795776367 35.02674865722656 50.78490829467773 30.44546318054199 50.78490829467773 M 38.48323440551758 -2.000007629394531 L 43.83957672119141 -2.000007629394531 C 45.86264801025391 -2.000007629394531 47.81433486938477 -0.9989776611328125 49.19420623779297 0.7464065551757812 C 50.48503494262695 2.379150390625 51.19591903686523 4.520065307617188 51.19591903686523 6.774765014648438 L 51.19591903686523 57.64573669433594 L 47.96340560913086 95.14480590820312 L 47.91952133178711 95.31129455566406 C 47.28840637207031 97.70561218261719 46.0956916809082 99.74623870849609 44.47032165527344 101.2125625610352 C 42.76093292236328 102.7546768188477 40.69063568115234 103.5698089599609 38.48323440551758 103.5698089599609 L -1.999992370605469 103.5698089599609 L -1.999992370605469 89.41413879394531 L 34.79310989379883 89.41413879394531 L 36.34433746337891 66.32798004150391 L -1.999992370605469 66.32798004150391 L -1.999992370605469 8.154609680175781 L 31.12471961975098 8.154609680175781 L 31.12471961975098 6.774765014648438 C 31.12471961975098 4.51983642578125 31.83576393127441 2.378837585449219 33.12687683105469 0.7461929321289062 C 34.50703430175781 -0.9990615844726562 36.4593505859375 -2.000007629394531 38.48323440551758 -2.000007629394531 Z M 30.44546318054199 48.78490829467773 C 33.88756561279297 48.78490829467773 36.48323440551758 45.27872085571289 36.48323440551758 40.62922286987305 C 36.48323440551758 35.97972106933594 33.88756561279297 32.47353363037109 30.44546318054199 32.47353363037109 C 27.00092124938965 32.47353363037109 24.40339279174805 35.97972106933594 24.40339279174805 40.62922286987305 C 24.40339279174805 45.27872085571289 27.00092124938965 48.78490829467773 30.44546318054199 48.78490829467773 Z" stroke="none" fill="#f2f2f2"/>
      </g>
      <g id="Union_2" data-name="Union 2" transform="translate(38.523)" fill="#3f3d56">
        <path d="M 103.3693771362305 113.6214752197266 L 97.28520965576172 113.6214752197266 C 95.35746765136719 113.6214752197266 93.55667114257812 112.7081680297852 92.21451568603516 111.0497970581055 C 90.92205810546875 109.4528121948242 90.21025848388672 107.3444137573242 90.21025848388672 105.1129837036133 L 90.21025848388672 102.3587188720703 L 53.61247253417969 102.3587188720703 L 19.23713302612305 102.3587188720703 L 19.23713302612305 105.1129837036133 C 19.23713302612305 107.3451690673828 18.52482414245605 109.4537048339844 17.23140907287598 111.0502014160156 C 15.88805484771729 112.7083053588867 14.08450126647949 113.6214752197266 12.15297794342041 113.6214752197266 L 6.074963092803955 113.6214752197266 C 2.173824548721313 113.6214752197266 -0.9999908208847046 109.8045806884766 -0.9999908208847046 105.1129837036133 L -0.9999908208847046 48.79763031005859 L -0.9999908208847046 48.75359725952148 L -0.9961138963699341 48.70973587036133 L 2.647624492645264 7.412937641143799 L 2.655301570892334 7.32576847076416 L 2.678024530410767 7.241260528564453 C 3.329886198043823 4.815999031066895 4.555009365081787 2.75847601890564 6.220947742462158 1.29113757610321 C 7.922670841217041 -0.2077393084764481 9.973932266235352 -1.000000834465027 12.15297794342041 -1.000000834465027 L 55.82573318481445 -1.000000834465027 L 97.28520965576172 -1.000000834465027 C 101.69091796875 -1.000000834465027 105.4134674072266 2.234168291091919 106.7688827514648 7.239445209503174 L 106.7920074462891 7.324830055236816 L 106.7997817993164 7.412937641143799 L 110.4435348510742 48.70973587036133 L 110.4474105834961 48.75359725952148 L 110.4474105834961 48.79763031005859 L 110.4474105834961 105.1129837036133 C 110.4474105834961 107.3443069458008 109.734992980957 109.4527969360352 108.4413909912109 111.0500640869141 C 107.0984420776367 112.7082595825195 105.2971649169922 113.6214752197266 103.3693771362305 113.6214752197266 Z M 88.17125701904297 57.30765914916992 C 83.53504180908203 57.30765914916992 80.03887176513672 61.71969223022461 80.03887176513672 67.57042694091797 C 80.03887176513672 73.4202880859375 83.53504180908203 77.83165740966797 88.17125701904297 77.83165740966797 C 92.79696655273438 77.83165740966797 96.28520965576172 73.4202880859375 96.28520965576172 67.57042694091797 C 96.28520965576172 61.71969223022461 92.79696655273438 57.30765914916992 88.17125701904297 57.30765914916992 Z M 21.27616310119629 57.30765914916992 C 16.64519309997559 57.30765914916992 13.15297794342041 61.71969223022461 13.15297794342041 67.57042694091797 C 13.15297794342041 73.4202880859375 16.64519309997559 77.83165740966797 21.27616310119629 77.83165740966797 C 25.91237831115723 77.83165740966797 29.40853309631348 73.4202880859375 29.40853309631348 67.57042694091797 C 29.40853309631348 61.71969223022461 25.91237831115723 57.30765914916992 21.27616310119629 57.30765914916992 Z M 13.22403812408447 40.28912353515625 L 55.82573318481445 40.28912353515625 L 96.21414947509766 40.28912353515625 L 94.28871154785156 12.26430702209473 L 53.61247253417969 12.26430702209473 L 15.14947509765625 12.26430702209473 L 13.22403812408447 40.28912353515625 Z" stroke="none"/>
        <path d="M 103.3693695068359 112.621467590332 C 106.7184219360352 112.621467590332 109.4474029541016 109.2555541992188 109.4474029541016 105.1129684448242 L 109.4474029541016 48.79762268066406 L 105.8036499023438 7.500837802886963 C 104.5696334838867 2.943854331970215 101.2297821044922 4.276530034985626e-06 97.28521728515625 4.276530034985626e-06 L 12.15298461914062 4.276530034985626e-06 C 8.217617988586426 4.276530034985626e-06 4.868551254272461 2.943854331970215 3.643751382827759 7.500837802886963 L 1.477050773246447e-06 48.79762268066406 L 1.477050773246447e-06 105.1129684448242 C 1.477050773246447e-06 109.2555541992188 2.728968143463135 112.621467590332 6.074951648712158 112.621467590332 L 12.15298461914062 112.621467590332 C 15.51123523712158 112.621467590332 18.23713493347168 109.2555541992188 18.23713493347168 105.1129684448242 L 18.23713493347168 101.3587188720703 L 91.21026611328125 101.3587188720703 L 91.21026611328125 105.1129684448242 C 91.21026611328125 109.2555541992188 93.93614959716797 112.621467590332 97.28521728515625 112.621467590332 L 103.3693695068359 112.621467590332 M 88.17124938964844 56.30767059326172 C 93.36520385742188 56.30767059326172 97.28521728515625 61.14860534667969 97.28521728515625 67.57041931152344 C 97.28521728515625 73.99072265625 93.36520385742188 78.83165740966797 88.17124938964844 78.83165740966797 C 82.96808624267578 78.83165740966797 79.03887176513672 73.99072265625 79.03887176513672 67.57041931152344 C 79.03887176513672 61.14860534667969 82.96808624267578 56.30767059326172 88.17124938964844 56.30767059326172 M 21.27615165710449 56.30767059326172 C 26.47931861877441 56.30767059326172 30.40853500366211 61.14860534667969 30.40853500366211 67.57041931152344 C 30.40853500366211 73.99072265625 26.47931861877441 78.83165740966797 21.27615165710449 78.83165740966797 C 16.07913398742676 78.83165740966797 12.15298461914062 73.99072265625 12.15298461914062 67.57041931152344 C 12.15298461914062 61.14860534667969 16.07913398742676 56.30767059326172 21.27615165710449 56.30767059326172 M 14.21581840515137 11.26430416107178 L 95.22236633300781 11.26430416107178 L 97.28521728515625 41.28911972045898 L 12.15298461914062 41.28911972045898 L 14.21581840515137 11.26430416107178 M 103.3693695068359 114.621467590332 L 97.28521728515625 114.621467590332 C 96.14028167724609 114.621467590332 95.03350067138672 114.3460235595703 93.99563598632812 113.8027572631836 C 93.02908325195312 113.2968368530273 92.16831970214844 112.5822677612305 91.43720245361328 111.6788864135742 C 90.00113677978516 109.9044876098633 89.21026611328125 107.5726547241211 89.21026611328125 105.1129684448242 L 89.21026611328125 103.3587188720703 L 20.23713493347168 103.3587188720703 L 20.23713493347168 105.1129684448242 C 20.23713493347168 107.573600769043 19.44561767578125 109.9057006835938 18.00840187072754 111.6796875 C 17.27646827697754 112.583137512207 16.41453552246094 113.2976684570312 15.44660186767578 113.8034362792969 C 14.40773487091064 114.3462371826172 13.29960155487061 114.621467590332 12.15298461914062 114.621467590332 L 6.074951648712158 114.621467590332 C 4.930668354034424 114.621467590332 3.824284791946411 114.3459854125977 2.786518096923828 113.8026733398438 C 1.820218086242676 113.2967910766602 0.9595015048980713 112.5823211669922 0.2283014804124832 111.6791534423828 C -1.208631873130798 109.9042739868164 -1.999998569488525 107.5723571777344 -1.999998569488525 105.1129684448242 L -1.999998569488525 48.70955276489258 L -1.992265224456787 48.6218376159668 L 1.666868090629578 7.150721073150635 L 1.71230149269104 6.981720924377441 C 2.415384769439697 4.365804195404053 3.745901584625244 2.138537645339966 5.559984683990479 0.5407209396362305 C 7.447084903717041 -1.121429085731506 9.72691822052002 -1.999995708465576 12.15298461914062 -1.999995708465576 L 97.28521728515625 -1.999995708465576 C 99.71430206298828 -1.999995708465576 101.995719909668 -1.121429085731506 103.8828201293945 0.5407209396362305 C 105.6939163208008 2.135921001434326 107.0256652832031 4.361920833587646 107.7341156005859 6.978070735931396 L 107.7803649902344 7.148837566375732 L 111.4474029541016 48.70955276489258 L 111.4474029541016 105.1129684448242 C 111.4474029541016 107.5726699829102 110.6558380126953 109.9046859741211 109.2184982299805 111.6794204711914 C 108.4870147705078 112.5826187133789 107.6259155273438 113.2970733642578 106.6591491699219 113.8029022216797 C 105.6210479736328 114.3460693359375 104.5141983032227 114.621467590332 103.3693695068359 114.621467590332 Z M 88.17124938964844 58.30767059326172 C 84.10511779785156 58.30767059326172 81.03887176513672 62.28978729248047 81.03887176513672 67.57041931152344 C 81.03887176513672 72.85018920898438 84.10511779785156 76.83165740966797 88.17124938964844 76.83165740966797 C 92.22688293457031 76.83165740966797 95.28521728515625 72.85018920898438 95.28521728515625 67.57041931152344 C 95.28521728515625 62.28978729248047 92.22688293457031 58.30767059326172 88.17124938964844 58.30767059326172 Z M 21.27615165710449 58.30767059326172 C 17.21528434753418 58.30767059326172 14.15298461914062 62.28978729248047 14.15298461914062 67.57041931152344 C 14.15298461914062 72.85018920898438 17.21528434753418 76.83165740966797 21.27615165710449 76.83165740966797 C 25.34228515625 76.83165740966797 28.40853500366211 72.85018920898438 28.40853500366211 67.57041931152344 C 28.40853500366211 62.28978729248047 25.34228515625 58.30767059326172 21.27615165710449 58.30767059326172 Z M 14.29511165618896 39.28911972045898 L 95.14308929443359 39.28911972045898 L 93.35505676269531 13.26430416107178 L 16.08312797546387 13.26430416107178 L 14.29511165618896 39.28911972045898 Z" stroke="none" fill="#f2f2f2"/>
      </g>
    </g>
    <ellipse id="Ellipse_168" data-name="Ellipse 168" cx="9.184" cy="12.379" rx="9.184" ry="12.379" transform="translate(1090.523 664.326)" fill="#ffe200"/>
    <ellipse id="Ellipse_169" data-name="Ellipse 169" cx="9.184" cy="12.379" rx="9.184" ry="12.379" transform="translate(939.583 664.326)" fill="#ffe200"/>
    <ellipse id="Ellipse_170" data-name="Ellipse 170" cx="9.583" cy="12.379" rx="9.583" ry="12.379" transform="translate(980.313 661.132)" fill="#ffe200"/>
    <ellipse id="Ellipse_171" data-name="Ellipse 171" cx="9.184" cy="12.379" rx="9.184" ry="12.379" transform="translate(1046.599 661.132)" fill="#ffe200"/>
  </g>
</svg>
